<?xml version="1.0" standalone="no"?>
<!DOCTYPE svg PUBLIC "-//W3C//DTD SVG 20010904//EN"
 "http://www.w3.org/TR/2001/REC-SVG-20010904/DTD/svg10.dtd">
<svg version="1.0" xmlns="http://www.w3.org/2000/svg"
 width="16.000000pt" height="16.000000pt" viewBox="0 0 16.000000 16.000000"
 preserveAspectRatio="xMidYMid meet">
<metadata>
Created by potrace 1.11, written by Peter Selinger 2001-2013
</metadata>
<g transform="translate(0.000000,16.000000) scale(0.002963,-0.002963)"
fill="#000000" stroke="none">
<path d="M0 2700 l0 -2700 2700 0 2700 0 0 2700 0 2700 -2700 0 -2700 0 0
-2700z m1758 1218 c9 -9 12 -161 12 -624 l0 -612 300 120 300 120 0 492 c0
369 3 495 12 504 17 17 609 17 626 0 9 -9 12 -105 12 -371 0 -337 1 -359 18
-355 9 3 417 166 905 362 488 197 896 356 905 354 16 -3 17 -32 20 -335 2
-313 1 -333 -16 -344 -10 -6 -144 -62 -298 -123 l-279 -112 -3 -744 c-1 -529
-5 -747 -13 -757 -16 -18 -609 -19 -627 -1 -9 9 -12 162 -12 625 l0 613 -52
-21 c-29 -11 -164 -66 -300 -121 l-248 -100 0 -492 c0 -369 -3 -495 -12 -504
-17 -17 -609 -17 -626 0 -9 9 -12 106 -12 373 l0 361 -300 -120 -300 -120 0
-241 c0 -174 -3 -244 -12 -253 -17 -17 -609 -17 -626 0 -8 8 -12 50 -12 121 0
100 -2 109 -17 103 -10 -4 -138 -54 -284 -113 -153 -60 -274 -103 -283 -100
-14 6 -16 43 -16 335 0 258 3 332 13 340 7 6 141 63 297 126 l285 114 3 743
c1 528 5 746 13 756 16 18 609 19 627 1z"/>
</g>
</svg>
